@startuml
'https://plantuml.com/class-diagram
skinparam style strictuml
skinparam classAttributeIconSize 0
skinparam classFontStyle Bold
hide empty members

Class TD6.Scenario3.Boisson{
+ <<create>> Boisson(nom: String, genre: Genre)


+ getNom(): String
+ getGenre(): Genre

}

TD6.Scenario3.Boisson o-- "genre"TD6.Scenario3.Genre


Class TD6.Scenario3.Brigand{
+ <<create>> Brigand(nom: String)
+ <<create>> Brigand(nom: String, boisson: Boisson)
+ <<create>> Brigand(nom: String, boisson: Boisson, look: String)
- recompense: Integer




+ getLook(): String
+ setLook(look: String)
+ getPseudonyme(): String
+ getStrRecompense(): String
+ getRecompense(): Integer
+ getDames(): Dame[*]
+ kidnapper(dame: Dame)
+ seFaireCapturer(cowboy: Cowboy)
+ isLibre(): Boolean
+ getCaptureur(): Cowboy
+ sePresenter()

}
TD6.Scenario3.Brigand ..|> TD6.Scenario3.HorsLaLoi

TD6.Scenario3.Brigand o-- "captureur"TD6.Scenario3.Cowboy
TD6.Scenario3.Brigand o--- "Dames"TD6.Scenario3.Dame
TD6.Scenario3.Brigand --> TD6.Scenario3.Dame: kidnapper
TD6.Scenario3.Brigand --> TD6.Scenario3.Cowboy: seFaireCapturer

TD6.Scenario3.Brigand ---|> TD6.Scenario3.Personnage
Class TD6.Scenario3.Cowboy{
+ <<create>> Cowboy(nom: String)
+ <<create>> Cowboy(nom: String, boisson: Boisson)
- somme: Integer


+ getPseudonyme(): String
+ getDamLibre(): Dame[*]
+ tirerSur(brigand: HorsLaLoi)
+ capturer(horsLaLoi: HorsLaLoi)
+ getSomme(): Integer
+ sePresenter()

}

TD6.Scenario3.Cowboy o--- "lstBrigand"TD6.Scenario3.HorsLaLoi
TD6.Scenario3.Cowboy o--- "damLibre"TD6.Scenario3.Dame
TD6.Scenario3.Cowboy --> TD6.Scenario3.HorsLaLoi: tirerSur
TD6.Scenario3.Cowboy --> TD6.Scenario3.HorsLaLoi: capturer

TD6.Scenario3.Cowboy ---|> TD6.Scenario3.Personnage
Class TD6.Scenario3.Dame{
+ <<create>> Dame(nom: String)



+ getPseudonyme(): String
+ isLibre(): Boolean
+ seFaireEnlever(horsLaLoi: HorsLaLoi)
+ seFaireLiberer(cowboy: Cowboy)
+ getSauveur(): Cowboy
+ getEscroc(): HorsLaLoi
+ sePresenter()

}

TD6.Scenario3.Dame o-- "sauveur"TD6.Scenario3.Cowboy
TD6.Scenario3.Dame o-- "escroc"TD6.Scenario3.HorsLaLoi
TD6.Scenario3.Dame --> TD6.Scenario3.HorsLaLoi: seFaireEnlever
TD6.Scenario3.Dame --> TD6.Scenario3.Cowboy: seFaireLiberer

TD6.Scenario3.Dame ---|> TD6.Scenario3.Personnage
Enum TD6.Scenario3.Genre<<enum>> {
MASCULIN
FEMININ

}
Class TD6.Scenario3.Histoire3{
+ <<create>> Histoire3()
{static} + main(args: void)

}



Class TD6.Scenario3.Histoire4{
+ <<create>> Histoire4()
{static} + main(args: void)

}



Interface TD6.Scenario3.HorsLaLoi<<interface>> {
{abstract} + getPseudonyme(): String
{abstract} + getLook(): String
{abstract} + getDames(): Dame[*]
{abstract} + kidnapper(dame: Dame)
{abstract} + seFaireCapturer(cowboy: Cowboy)
{abstract} + getRecompense(): Integer
{abstract} + isLibre(): Boolean
{abstract} + getCaptureur(): Cowboy
{abstract} + sePresenter()
{abstract} + dire(phrase: String)

}

Interface TD6.Scenario3.ITest<<interface>> {

}
TD6.Scenario3.ITest ---|> TD6.Scenario3.HorsLaLoi

Class TD6.Scenario3.Narrateur{
+ <<create>> Narrateur(nom: String)
+ getPseudonyme(): String
+ boire(boisson: Boisson)

}

TD6.Scenario3.Narrateur --> TD6.Scenario3.Boisson: boire

TD6.Scenario3.Narrateur ---|> TD6.Scenario3.Personnage
Class TD6.Scenario3.Personnage{
+ <<create>> Personnage(nom: String, boisson: Boisson)
+ <<create>> Personnage(nom: String)


+ getNom(): String
+ getPrefere(): Boisson
+ setPrefere(prefere: Boisson)
+ sePresenter()
+ boire(boisson: Boisson)
+ dire(phrase: String)
+ boire()
{abstract} + getPseudonyme(): String

}

TD6.Scenario3.Personnage o-- "prefere"TD6.Scenario3.Boisson
TD6.Scenario3.Personnage --> TD6.Scenario3.Boisson: setPrefere
TD6.Scenario3.Personnage --> TD6.Scenario3.Boisson: boire


Class TD6.Scenario3.Ripou{
+ <<create>> Ripou(nom: String)
+ <<create>> Ripou(nom: String, boisson: Boisson)
+ <<create>> Ripou(nom: String, boisson: Boisson, look: String)
- recompense: Integer
- somme: Integer





+ getPseudonyme(): String
+ isLibre(): Boolean
+ getLook(): String
+ getRecompense(): Integer
+ getStrRecompense(): String
+ getDames(): Dame[*]
+ kidnapper(dame: Dame)
+ seFaireCapturer(cowboy: Cowboy)
+ getCaptureur(): Cowboy
+ sePresenter()
+ capturer(horsLaLoi: HorsLaLoi)

}
TD6.Scenario3.Ripou ..|> TD6.Scenario3.HorsLaLoi

TD6.Scenario3.Ripou o--- "lstBrigand"TD6.Scenario3.Brigand
TD6.Scenario3.Ripou o--- "Dames"TD6.Scenario3.Dame
TD6.Scenario3.Ripou o-- "captureur"TD6.Scenario3.Cowboy
TD6.Scenario3.Ripou --> TD6.Scenario3.Dame: kidnapper
TD6.Scenario3.Ripou --> TD6.Scenario3.Cowboy: seFaireCapturer
TD6.Scenario3.Ripou --> TD6.Scenario3.HorsLaLoi: capturer

TD6.Scenario3.Ripou ---|> TD6.Scenario3.Cowboy

@enduml

