@startuml
'https://plantuml.com/class-diagram
skinparam style strictuml
skinparam classAttributeIconSize 0
skinparam classFontStyle Bold
hide empty members

Class western.Boisson{
+ <<create>> Boisson(nom: String, genre: Genre)


+ getNom(): String
+ getGenre(): Genre
+ getNomAvecArticleIndefini(): String
+ getNomAvecArticlePartitif(): String
+ getNomAvecArticleDefini(): String
+ getNomAvecPreposition(preposition: String): String

}
western.Boisson o-- "substantif"western.Substantif
western.Boisson o-- "EAU"western.Boisson


Class western.Brigand{
+ <<create>> Brigand(nom: String)
+ <<create>> Brigand(nom: String, boisson: Boisson)
+ <<create>> Brigand(nom: String, boisson: Boisson, look: String)


- recompense: Integer
- estLibre: Boolean


+ getLook(): String
+ getRecompense(): Integer
+ estLibre(): Boolean
+ kidnapper(dame: Dame)
+ seFaireCapturer(cowBoy: Cowboy)
+ seFaireTirerDessus(cowBoy: Cowboy)
+ getPseudo(): String
+ getCaptives(): Dame[*]
+ sePresenter()

{static} + getBoissonParDefaut(): Boisson
{static} + setBoissonParDefaut(boisson: Boisson)

}
western.Brigand o--- "captives"western.Dame
western.Brigand o-- "gardien"western.Cowboy
western.Brigand --> western.Dame: kidnapper
western.Brigand --> western.Cowboy: seFaireCapturer
western.Brigand --> western.Cowboy: seFaireTirerDessus
western.Brigand o-- "boissonParDefaut"western.Boisson
western.Brigand --> western.Boisson: setBoissonParDefaut

western.Brigand ---|> western.Personnage
Class western.CasDeTestStandard{
+ <<create>> CasDeTestStandard()
{static} + beforeAll()
+ beforeEach()
+ testMethod1()
+ testMethod2()
+ testMethod3()
+ testMethod4()
+ testMethod5()
+ afterEach()
{static} + afterAll()

}


Class western.Cowboy{
+ <<create>> Cowboy(nom: String)
+ <<create>> Cowboy(nom: String, boisson: Boisson)
- gains: Integer

+ getPseudo(): String
+ liberer(dame: Dame)
+ liberer(captives: Dame[*])
+ capturer(horsLaLoi: HorsLaLoi)
+ tirerSur(brigand: HorsLaLoi)
+ sePresenter()

{static} + getBoissonParDefaut(): Boisson
{static} + setBoissonParDefaut(boisson: Boisson)

}
western.Cowboy o--- "captures"western.HorsLaLoi
western.Cowboy --> western.Dame: liberer
western.Cowboy --> western.HorsLaLoi: capturer
western.Cowboy --> western.HorsLaLoi: tirerSur
western.Cowboy o-- "boissonParDefaut"western.Boisson
western.Cowboy --> western.Boisson: setBoissonParDefaut

western.Cowboy ---|> western.Personnage
Class western.Dame{
+ <<create>> Dame(nom: String)
+ <<create>> Dame(nom: String, boisson: Boisson)
- estLibre: Boolean


+ getPseudo(): String
+ seFaireKidnapper(horsLaLoi: HorsLaLoi)
+ seFaireLiberer(cowBoy: Cowboy)
+ estLibre(): Boolean
+ sePresenter()

{static} + getBoissonParDefaut(): Boisson
{static} + setBoissonParDefaut(boisson: Boisson)
+ getRavisseur(): HorsLaLoi

}
western.Dame o-- "sauveur"western.Cowboy
western.Dame o-- "ravisseur"western.HorsLaLoi
western.Dame --> western.HorsLaLoi: seFaireKidnapper
western.Dame --> western.Cowboy: seFaireLiberer
western.Dame o-- "boissonParDefaut"western.Boisson
western.Dame --> western.Boisson: setBoissonParDefaut

western.Dame ---|> western.Personnage
Enum western.Genre<<enum>> {
FEMININ
MASCULIN

}
Class western.Histoire4{
+ <<create>> Histoire4()
{static} + main(args: void)

}


Interface western.HorsLaLoi<<interface>> {
{abstract} + estLibre(): Boolean
{abstract} + getRecompense(): Integer
{abstract} + kidnapper(dame: Dame)
{abstract} + seFaireCapturer(cowBoy: Cowboy)
{abstract} + seFaireTirerDessus(cowBoy: Cowboy)
{abstract} + getLook(): String
{abstract} + getCaptives(): Dame[*]

}
western.HorsLaLoi ---|> western.Nommable

Class western.Narrateur{
+ <<create>> Narrateur()
+ <<create>> Narrateur(nom: String)
+ dire(texte: String)
+ boire(boisson: Boisson)
+ boire()
+ getPseudo(): String

}
western.Narrateur --> western.Boisson: boire

western.Narrateur ---|> western.Personnage
Interface western.Nommable<<interface>> {
{abstract} + getNom(): String
{abstract} + getPseudo(): String

}

Class western.Personnage{
+ <<create>> Personnage(nom: String)
+ <<create>> Personnage(nom: String, boisson: Boisson)



+ dire(texte: String)
+ sePresenter()
+ boire(boisson: Boisson)
+ boire()
+ getNom(): String
+ getBoisson(): Boisson
{static} + getPseudos(personnages: Nommable[*]): String
{static} + getBoissonParDefaut(): Boisson

}
western.Personnage o-- "BOISSON_PAR_DEFAUT"western.Boisson
western.Personnage o-- "boisson"western.Boisson
western.Personnage --> western.Boisson: boire


Class western.Ripou{
+ <<create>> Ripou(nom: String)
+ <<create>> Ripou(nom: String, boisson: Boisson)
+ <<create>> Ripou(nom: String, boisson: Boisson, look: String)

+ getLook(): String
+ estLibre(): Boolean
+ getRecompense(): Integer
+ kidnapper(dame: Dame)
+ getCaptives(): Dame[*]
+ seFaireCapturer(cowBoy: Cowboy)
+ seFaireTirerDessus(cowBoy: Cowboy)
+ getPseudo(): String
+ sePresenter()
+ liberer(dame: Dame)

}
western.Ripou o-- "brigand"western.Brigand
western.Ripou --> western.Dame: kidnapper
western.Ripou --> western.Cowboy: seFaireCapturer
western.Ripou --> western.Cowboy: seFaireTirerDessus
western.Ripou --> western.Dame: liberer

western.Ripou ---|> western.Cowboy
Class western.Substantif{
+ <<create>> Substantif(nom: String, genre: Genre)


+ getNom(): String
+ getGenre(): Genre
+ toString(): String
{static} + isVowel(c: String): Boolean
{static} + startsWithVowel(s: String): Boolean
+ getArticleIndefini(): String
+ avecArticleIndefini(): String
{static} + getArticleDefini(genre: Genre): String
+ getArticleDefini(): String
+ avecArticleDefini(): String
{static} + faireElision(article: String): String
+ elision(): Boolean
+ getArticlePartitif(): String
+ avecArticlePartitif(): String
+ avecElision(article: String): String
+ avecPreposition(preposition: String): String

}
western.Substantif o-- "genre"western.Genre
western.Substantif --> western.Genre: getArticleDefini


Class western.test{
+ <<create>> test()

}



@enduml

